/vscmnt/brussel_pixiu_data/_data_brussel/112/vsc11236/PredSimResults/SUBJ06opt3D/trackIG/worker_15.mot
version=1
nRows=10
nColumns=50
inDegrees=yes
endheader
                time	         pelvis_tilt	         pelvis_list	     pelvis_rotation	           pelvis_tx	           pelvis_ty	           pelvis_tz	       hip_flexion_r	     hip_adduction_r	      hip_rotation_r	        knee_angle_r	       ankle_angle_r	         mtp_angle_r	       hip_flexion_l	     hip_adduction_l	      hip_rotation_l	        knee_angle_l	       ankle_angle_l	         mtp_angle_l	    lumbar_extension	      lumbar_bending	     lumbar_rotation	 ercspn_r/activation	 intobl_r/activation	 extobl_r/activation	    abd_r/activation	    add_r/activation	hamstrings_r/activation	bifemsh_r/activation	glut_max_r/activation	iliopsoas_r/activation	rect_fem_r/activation	  vasti_r/activation	gastroc_r/activation	 soleus_r/activation	tib_ant_r/activation	 ercspn_l/activation	 intobl_l/activation	 extobl_l/activation	    abd_l/activation	    add_l/activation	hamstrings_l/activation	bifemsh_l/activation	glut_max_l/activation	iliopsoas_l/activation	rect_fem_l/activation	  vasti_l/activation	gastroc_l/activation	 soleus_l/activation	tib_ant_l/activation	
          0.00000000	        -13.97806163	         -1.35084660	          9.98523175	          0.00000000	          0.88884525	         -0.01301476	         47.07029222	         -4.75731735	         -5.80794541	        -11.86203567	         -1.60523566	          0.24332367	         -0.99714527	         -1.62241097	          3.79570543	        -25.70339734	          4.45542243	         49.03800639	         -5.69705122	         -0.85379572	         -1.69107260	          0.22360608	          0.07868096	          0.01000001	          0.01000000	          0.15436211	          0.01000001	          0.31142282	          0.01604011	          0.15077268	          0.03515095	          0.00999999	          0.07840208	          0.01680289	          0.50915969	          0.26569476	          0.01893225	          0.01000000	          0.05573120	          0.03990487	          0.14738245	          0.81052179	          0.04805999	          0.07635866	          0.01652495	          0.07971493	          0.21019419	          0.34058358	          0.01915261	
          0.01133121	        -13.78966515	         -1.45249051	         10.33121172	          0.02957305	          0.88852997	         -0.01213271	         46.88593924	         -4.82700481	         -7.06736232	        -14.80903008	         -2.18945413	          0.25958023	         -2.65770239	         -2.20611540	          3.17763490	        -25.53928929	          1.13189484	         50.16756872	         -5.15573140	         -0.62353564	         -1.94734442	          0.18808548	          0.06618222	          0.01000006	          0.01000000	          0.16126692	          0.05061530	          0.26195223	          0.11020789	          0.12682192	          0.02956710	          0.00999999	          0.06594764	          0.01413370	          0.57716948	          0.25176863	          0.01680302	          0.01000006	          0.04687811	          0.03356586	          0.13394428	          0.68784529	          0.04042550	          0.23803401	          0.01389991	          0.06705193	          0.19628323	          0.28648070	          0.01611015	
          0.02266242	        -13.58336861	         -1.65405394	         10.66189899	          0.05921919	          0.88789500	         -0.01116564	         46.67058862	         -4.85453919	         -7.94288075	        -18.21242618	         -2.26268836	          0.16269149	         -3.94164304	         -2.90814061	          2.45163269	        -26.07581656	         -1.88694464	         50.16509815	         -4.59633754	         -0.28999404	         -2.19258574	          0.15820745	          0.05566894	          0.01000002	          0.13300837	          0.18910296	          0.08389413	          0.22034022	          0.12516528	          0.10667582	          0.02487026	          0.00999999	          0.05547163	          0.01188851	          0.66692095	          0.21613574	          0.01413381	          0.01000001	          0.03943136	          0.02823382	          0.11266679	          0.57857870	          0.03400377	          0.56593372	          0.01169187	          0.05640050	          0.16510930	          0.24097225	          0.01355100	
          0.03399363	        -13.36576084	         -1.92363911	         10.97987172	          0.08847927	          0.88719371	         -0.00999824	         46.60279952	         -4.73901265	         -8.38488049	        -21.89946609	         -1.92888885	          0.10385046	         -4.66974086	         -3.70082597	          1.65679857	        -27.51309766	         -4.80700398	         49.28495128	         -4.08355643	          0.10322376	         -2.43491320	          0.16437307	          0.04682574	          0.01000002	          0.23061552	          0.28831305	          0.08011828	          0.18533841	          0.49859167	          0.08973000	          0.02091954	          0.00999999	          0.04665977	          0.00999999	          0.56097827	          0.31025452	          0.01188860	          0.01000001	          0.03316755	          0.02374878	          0.09476929	          0.48666948	          0.02860215	          0.75272711	          0.01000002	          0.04744109	          0.13888113	          0.20269297	          0.01139837	
          0.04532484	        -13.13227839	         -2.25836534	         11.29217268	          0.11710702	          0.88670732	         -0.00858932	         46.77368552	         -4.44135215	         -8.33825657	        -26.03154579	         -0.86035499	          0.07416041	         -4.74492021	         -4.60362808	          0.79797016	        -29.91570799	         -7.80945209	         47.60431099	         -3.64522232	          0.54686542	         -2.68646321	          0.21785173	          0.03938731	          0.01000001	          0.37376087	          0.41187908	          0.06739123	          0.15589676	          0.66134016	          0.07547608	          0.01759640	          0.01000000	          0.03924771	          0.13629681	          0.47186493	          0.43171965	          0.01000006	          0.01000001	          0.02789877	          0.01997621	          0.07971486	          0.40936035	          0.02405860	          0.85913699	          0.01000007	          0.03990491	          0.11681939	          0.17049449	          0.00999999	
          0.05665605	        -12.88193305	         -2.60262620	         11.57213131	          0.14517682	          0.88662648	         -0.00698308	         47.03013928	         -4.04866878	         -8.12190433	        -30.48668786	          1.63735594	          0.57484583	         -4.22212168	         -5.58021163	         -0.11656146	        -33.11195525	        -11.04891466	         45.11952347	         -3.26426886	          0.97803944	         -2.92707435	          0.26120004	          0.03313050	          0.01000001	          0.47932689	          0.45647656	          0.05668599	          0.13113203	          0.55628400	          0.06348644	          0.01480115	          0.10009681	          0.03301308	          0.18178016	          0.39690755	          0.50856783	          0.01000000	          0.01000001	          0.02346696	          0.01680292	          0.06705189	          0.34433205	          0.02023681	          0.78294896	          0.01000012	          0.03356587	          0.09826223	          0.14341085	          0.00999999	
          0.06798726	        -12.62539046	         -2.91248593	         11.81862408	          0.17288470	          0.88708356	         -0.00526415	         46.93007235	         -3.58838284	         -7.93027630	        -34.24964947	          4.01713948	          1.74283965	         -3.23268432	         -6.60466957	         -1.03741727	        -36.81247312	        -14.33315764	         41.26627872	         -2.89791146	          1.34476340	         -3.15819188	          0.22788133	          0.02786760	          0.01000001	          0.53148265	          0.38396368	          0.06104217	          0.11030125	          0.46791636	          0.05340140	          0.01244994	          0.28938839	          0.02776884	          0.25549469	          0.33385741	          0.52121931	          0.01328111	          0.01000000	          0.04528187	          0.01413372	          0.05640047	          0.28963372	          0.01702212	          0.65857481	          0.01000006	          0.02823382	          0.08265294	          0.12062954	          0.17389530	
          0.07931847	        -12.38037920	         -3.19206644	         12.03606638	          0.20013461	          0.88824432	         -0.00353943	         46.24617287	         -3.06746328	         -7.89625462	        -36.85206142	          5.98733368	          3.40983735	         -1.91346910	         -7.66423593	         -1.94318806	        -40.78396175	        -16.58163936	         35.88378878	         -2.53501109	          1.65811304	         -3.38162865	          0.19168160	          0.02344074	          0.01000001	          0.57401958	          0.32296972	          0.07760424	          0.09277952	          0.39358624	          0.04491840	          0.01047222	          0.58397459	          0.06099985	          0.31627635	          0.28082301	          0.50051803	          0.01117138	          0.01000001	          0.03808869	          0.01188853	          0.04744106	          0.29692187	          0.01431810	          0.55395793	          0.01000002	          0.02374878	          0.11363182	          0.10146712	          0.22013434	
          0.09064968	        -12.16455466	         -3.46716492	         12.20178882	          0.22666430	          0.89048856	         -0.00187695	         44.94489697	         -2.45736063	         -8.01045372	        -38.17944549	          7.59860137	          5.41664226	         -0.32181949	         -8.71547687	         -2.78928470	        -44.80607690	        -17.00352428	         31.01481160	         -2.19180351	          1.96154327	         -3.56923495	          0.16123231	          0.01971710	          0.01000000	          0.58887950	          0.27166486	          0.10195495	          0.07804117	          0.33106380	          0.03778296	          0.00999999	          0.73057484	          0.12853759	          0.37611358	          0.23621330	          0.47873957	          0.01000000	          0.01000007	          0.03203817	          0.01000000	          0.03990489	          0.36458128	          0.01204362	          0.46595979	          0.01000002	          0.01997620	          0.10726170	          0.08534872	          0.29622286	
          0.10198089	        -11.99045194	         -3.71533314	         12.29093009	          0.25226408	          0.89414094	         -0.00026242	         43.19868060	         -1.77252769	         -8.14064592	        -38.46351081	          8.77589858	          7.58104298	          1.56232155	         -9.69214026	         -3.54452152	        -48.74299089	        -16.87851559	         26.84271452	         -1.89755797	          2.23509606	         -3.69558993	          0.13562001	          0.01658497	          0.01000001	          0.53770155	          0.22850996	          0.11734974	          0.06564406	          0.30495450	          0.03178100	          0.01000000	          0.66144281	          0.19885308	          0.43143581	          0.19869000	          0.45764091	          0.01000000	          0.01650686	          0.02694880	          0.01000000	          0.03356586	          0.38480975	          0.01013045	          0.39194047	          0.01000002	          0.01680291	          0.09625382	          0.07179078	          0.31893447	
